<svg xmlns="http://www.w3.org/2000/svg" width="1200" height="1200" viewBox="0 0 1200 1200"><style>.cls-1{fill: #da5555;}</style><path id="Color_Fill_1" data-name="Color Fill 1" class="cls-1" d="M479,343c135.9-2.546,175.881,68.151,266,107,37.331,16.093,101.51,16.018,128-11-22.509-2.685-22.472-22.983-37-33-10.342-7.131-26.914-8.63-35-18q1-2.5,2-5c21.46-3.763,44.788,3.86,69,0l42-7c10.63,2.217,15.66,8.81,23,13l21-10c18.538-5.933,47.65-7.021,67-1,31.26,9.725,49.18,33.666,78,45,25.37,9.978,64.18,6.88,88,17-1.35,91.709-134.7,50.167-204,76-42.638,15.894-69.236,57.357-99,87-65.14,64.875-147.283,126.072-291,108,0.083-34.544-3.184-70.01-7-98,21.954-18.148,46.107-33.8,69-52-29.5,7.173-52.8,22.551-76,36h-1c-9.781-37.388-40.473-66.554-72-83l2,3c33.288,18.415,59.221,78.823,68,120,13.577,63.678-4.062,98.712,31,143,20.911,26.413,58.092,37.586,97,46,36.774,7.952,74.289-4.89,93,20v1c-16.378,6.746-32.435,14.94-53,19-38.382,7.577-104.313-28.86-135-39-20.361-6.728-49.446-5.627-67-16q-7-34.5-14-69c-55.689,1.493-81.778,35.082-121,47-47.342,14.386-87.779-15.455-123-23-25.18-5.394-57.342-.558-78-9v-5c47.774-73.7,101.4,1.006,174-11,49.739-8.225,83.985-32.866,126-46-43.177-84.4-260.114-52.391-209-203-11.872,4.968-14.775,16.458-22,26-78.4-34.342-144.046,77.415-230,41C5.325,540.5-8.994,477.543,33,446c8.727-6.555,34.471-25.959,51-16h2l-1,5c-22,5.935-46.469,19.566-55,39-18.9,43.044,24.174,75.5,67,66,29.228-6.486,47.154-26.835,69-41l125-81c34.979-21.4,70.7-41.292,111-57C423.575,352.59,458.743,352.4,479,343Z"/></svg>